<?xml version="1.0" encoding="UTF-8" standalone="no"?>
<!-- Created with Inkscape (http://www.inkscape.org/) -->

<svg
   xmlns:dc="http://purl.org/dc/elements/1.1/"
   xmlns:cc="http://creativecommons.org/ns#"
   xmlns:rdf="http://www.w3.org/1999/02/22-rdf-syntax-ns#"
   xmlns:svg="http://www.w3.org/2000/svg"
   xmlns="http://www.w3.org/2000/svg"
   version="1.1"
   width="286"
   height="144"
   id="svg3052">
  <metadata
     id="metadata3058">
    <rdf:RDF>
      <cc:Work
         rdf:about="">
        <dc:format>image/svg+xml</dc:format>
        <dc:type
           rdf:resource="http://purl.org/dc/dcmitype/StillImage" />
        <dc:title></dc:title>
      </cc:Work>
    </rdf:RDF>
  </metadata>
  <defs
     id="defs3056" />
  <path
     d="M 38,1.90625 C 34.126777,1.9195818 28.757909,2 22.9375,2 l -21.15625,0 0.5,45.75 C 2.6927062,85.909929 3.0529173,94.747548 4.46875,100.96875 9.7915384,124.35723 24.111195,137.764 47.1875,141 c 12.491647,1.75171 37.720944,-0.28617 57.5625,-4.625 L 112,134.8125 112,68.40625 112,2 93.5,2 75,2 l 0,52.5 0,52.5 -17,0 -17,0 0,-36.5 0,-36.5 -7.5,0 c -4.125,0 -7.65625,0.209148 -7.65625,-0.09375 0,-0.302898 4.057346,-7.634148 8.8125,-15.71875 4.755154,-8.084602 9.272695,-15.61875 9.5,-16.03125 C 44.269903,1.95 41.873223,1.8929182 38,1.90625 z"
     id="path3066"
     style="fill:#dd4814;fill-opacity:1" />
  <g
     id="text7743"
     style="font-size:40px;font-style:normal;font-weight:normal;line-height:125%;letter-spacing:0px;word-spacing:0px;fill:#dd4814;fill-opacity:1;stroke:none;font-family:Sans">
    <path
       d="m 157.12637,39.841646 c -1.02403,0.256 -2.38402,0.528 -4.08,0.816 -1.66402,0.287999 -3.60002,0.431999 -5.808,0.432 -1.92001,-1e-6 -3.53601,-0.272001 -4.848,-0.816 -1.31201,-0.576 -2.36801,-1.375999 -3.168,-2.4 -0.80001,-1.023997 -1.37601,-2.223996 -1.728,-3.6 -0.35201,-1.407993 -0.52801,-2.959991 -0.528,-4.656 l 0,-14.016 4.464,0 0,13.056 c -1e-5,3.040008 0.47999,5.216006 1.44,6.528 0.95999,1.312004 2.57599,1.968003 4.848,1.968 0.47998,3e-6 0.97598,-0.016 1.488,-0.048 0.51198,-0.032 0.99198,-0.064 1.44,-0.096 0.44798,-0.064 0.84798,-0.111997 1.2,-0.144 0.38398,-0.064 0.65598,-0.127997 0.816,-0.192 l 0,-21.072 4.464,0 0,24.24"
       id="path7877"
       style="font-size:48px;font-variant:normal;font-stretch:normal;line-height:125%;letter-spacing:-0.69999999px;fill:#dd4814;font-family:Ubuntu;-inkscape-font-specification:Ubuntu" />
    <path
       d="m 168.58087,16.705646 c 0.54399,-0.351976 1.35999,-0.719976 2.448,-1.104 1.11999,-0.383975 2.39998,-0.575975 3.84,-0.576 1.79198,2.5e-5 3.37598,0.320025 4.752,0.96 1.40798,0.640023 2.59197,1.536023 3.552,2.688 0.95997,1.15202 1.67997,2.528019 2.16,4.128 0.51197,1.600016 0.76797,3.360014 0.768,5.28 -3e-5,2.01601 -0.30403,3.840008 -0.912,5.472 -0.57603,1.600005 -1.40803,2.960004 -2.496,4.08 -1.08802,1.120001 -2.40002,1.984 -3.936,2.592 -1.53602,0.607999 -3.26402,0.911999 -5.184,0.912 -2.08001,-10e-7 -3.92001,-0.144001 -5.52,-0.432 -1.60001,-0.288 -2.91201,-0.576 -3.936,-0.864 l 0,-35.7600005 4.464,-0.768 0,13.3920005 m 0,19.968 c 0.44799,0.128003 1.07199,0.256003 1.872,0.384 0.83199,0.096 1.85598,0.144003 3.072,0.144 2.39998,3e-6 4.31998,-0.783996 5.76,-2.352 1.43998,-1.599993 2.15998,-3.855991 2.16,-6.768 -2e-5,-1.279987 -0.12802,-2.479986 -0.384,-3.6 -0.25602,-1.119983 -0.67202,-2.079982 -1.248,-2.88 -0.57602,-0.831981 -1.32802,-1.47198 -2.256,-1.92 -0.89602,-0.479979 -1.98402,-0.719979 -3.264,-0.72 -1.21602,2.1e-5 -2.33601,0.208021 -3.36,0.624 -1.02401,0.41602 -1.80801,0.84802 -2.352,1.296 l 0,15.792"
       id="path7879"
       style="font-size:48px;font-variant:normal;font-stretch:normal;line-height:125%;letter-spacing:-0.69999999px;fill:#dd4814;font-family:Ubuntu;-inkscape-font-specification:Ubuntu" />
    <path
       d="m 211.60137,39.841646 c -1.02403,0.256 -2.38403,0.528 -4.08,0.816 -1.66402,0.287999 -3.60002,0.431999 -5.808,0.432 -1.92002,-1e-6 -3.53601,-0.272001 -4.848,-0.816 -1.31201,-0.576 -2.36801,-1.375999 -3.168,-2.4 -0.80001,-1.023997 -1.37601,-2.223996 -1.728,-3.6 -0.35201,-1.407993 -0.52801,-2.959991 -0.528,-4.656 l 0,-14.016 4.464,0 0,13.056 c -1e-5,3.040008 0.47999,5.216006 1.44,6.528 0.95999,1.312004 2.57598,1.968003 4.848,1.968 0.47998,3e-6 0.97598,-0.016 1.488,-0.048 0.51198,-0.032 0.99198,-0.064 1.44,-0.096 0.44798,-0.064 0.84798,-0.111997 1.2,-0.144 0.38398,-0.064 0.65598,-0.127997 0.816,-0.192 l 0,-21.072 4.464,0 0,24.24"
       id="path7881"
       style="font-size:48px;font-variant:normal;font-stretch:normal;line-height:125%;letter-spacing:-0.69999999px;fill:#dd4814;font-family:Ubuntu;-inkscape-font-specification:Ubuntu" />
    <path
       d="m 218.59187,16.321646 c 1.02399,-0.255976 2.38399,-0.527976 4.08,-0.816 1.69599,-0.287975 3.64799,-0.431975 5.856,-0.432 1.98398,2.5e-5 3.63198,0.288025 4.944,0.864 1.31198,0.544024 2.35198,1.328023 3.12,2.352 0.79998,0.992021 1.35998,2.19202 1.68,3.6 0.31998,1.408017 0.47998,2.960015 0.48,4.656 l 0,14.016 -4.464,0 0,-13.056 c -2e-5,-1.535986 -0.11202,-2.847985 -0.336,-3.936 -0.19202,-1.087982 -0.52802,-1.967982 -1.008,-2.64 -0.48002,-0.67198 -1.12002,-1.15198 -1.92,-1.44 -0.80002,-0.319979 -1.79202,-0.479979 -2.976,-0.48 -0.48001,2.1e-5 -0.97601,0.01602 -1.488,0.048 -0.51201,0.03202 -1.00801,0.08002 -1.488,0.144 -0.44801,0.03202 -0.86401,0.08002 -1.248,0.144 -0.35201,0.06402 -0.60801,0.112021 -0.768,0.144 l 0,21.072 -4.464,0 0,-24.24"
       id="path7883"
       style="font-size:48px;font-variant:normal;font-stretch:normal;line-height:125%;letter-spacing:-0.69999999px;fill:#dd4814;font-family:Ubuntu;-inkscape-font-specification:Ubuntu" />
    <path
       d="m 249.63036,15.601646 9.456,0 0,3.744 -9.456,0 0,11.52 c 0,1.248008 0.096,2.288007 0.288,3.12 0.192,0.800005 0.48,1.440005 0.864,1.92 0.384,0.448004 0.86399,0.768003 1.44,0.96 0.57599,0.192003 1.24799,0.288003 2.016,0.288 1.34399,3e-6 2.41599,-0.143997 3.216,-0.432 0.83199,-0.319996 1.40799,-0.543996 1.728,-0.672 l 0.864,3.696 c -0.44801,0.224 -1.23201,0.496 -2.352,0.816 -1.12001,0.351999 -2.40001,0.527999 -3.84,0.528 -1.69601,-1e-6 -3.104,-0.208001 -4.224,-0.624 -1.088,-0.448 -1.968,-1.103999 -2.64,-1.968 -0.672,-0.863998 -1.152,-1.919997 -1.44,-3.168 -0.256,-1.279994 -0.384,-2.751993 -0.384,-4.416 l 0,-22.2720005 4.464,-0.768 0,7.7280005"
       id="path7885"
       style="font-size:48px;font-variant:normal;font-stretch:normal;line-height:125%;letter-spacing:-0.69999999px;fill:#dd4814;font-family:Ubuntu;-inkscape-font-specification:Ubuntu" />
    <path
       d="m 283.93887,39.841646 c -1.02403,0.256 -2.38402,0.528 -4.08,0.816 -1.66402,0.287999 -3.60002,0.431999 -5.808,0.432 -1.92001,-1e-6 -3.53601,-0.272001 -4.848,-0.816 -1.31201,-0.576 -2.36801,-1.375999 -3.168,-2.4 -0.80001,-1.023997 -1.37601,-2.223996 -1.728,-3.6 -0.35201,-1.407993 -0.52801,-2.959991 -0.528,-4.656 l 0,-14.016 4.464,0 0,13.056 c -10e-6,3.040008 0.47999,5.216006 1.44,6.528 0.95999,1.312004 2.57599,1.968003 4.848,1.968 0.47998,3e-6 0.97598,-0.016 1.488,-0.048 0.51198,-0.032 0.99198,-0.064 1.44,-0.096 0.44798,-0.064 0.84798,-0.111997 1.2,-0.144 0.38398,-0.064 0.65598,-0.127997 0.816,-0.192 l 0,-21.072 4.464,0 0,24.24"
       id="path7887"
       style="font-size:48px;font-variant:normal;font-stretch:normal;line-height:125%;letter-spacing:-0.69999999px;fill:#dd4814;font-family:Ubuntu;-inkscape-font-specification:Ubuntu" />
  </g>
  <g
     id="text7853"
     style="font-size:40px;font-style:normal;font-weight:normal;line-height:125%;letter-spacing:0px;word-spacing:0px;fill:#303030;fill-opacity:1;stroke:none;font-family:Sans">
    <path
       d="m 159.70856,63.124027 c -2e-5,1.98401 -0.28802,3.776008 -0.864,5.376 -0.57602,1.600005 -1.39202,2.976004 -2.448,4.128 -1.02402,1.152002 -2.25602,2.048001 -3.696,2.688 -1.44001,0.607999 -3.00801,0.911999 -4.704,0.912 -1.69601,-10e-7 -3.26401,-0.304001 -4.704,-0.912 -1.44,-0.639999 -2.688,-1.535998 -3.744,-2.688 -1.024,-1.151996 -1.824,-2.527995 -2.4,-4.128 -0.576,-1.599992 -0.864,-3.39199 -0.864,-5.376 0,-1.951986 0.288,-3.727984 0.864,-5.328 0.576,-1.631981 1.376,-3.023979 2.4,-4.176 1.056,-1.151977 2.304,-2.031976 3.744,-2.64 1.43999,-0.639975 3.00799,-0.959975 4.704,-0.96 1.69599,2.5e-5 3.26399,0.320025 4.704,0.96 1.43998,0.608024 2.67198,1.488023 3.696,2.64 1.05598,1.152021 1.87198,2.544019 2.448,4.176 0.57598,1.600016 0.86398,3.376014 0.864,5.328 m -4.656,0 c -2e-5,-2.815985 -0.64002,-5.039983 -1.92,-6.672 -1.24801,-1.663979 -2.96001,-2.495979 -5.136,-2.496 -2.17601,2.1e-5 -3.90401,0.832021 -5.184,2.496 -1.248,1.632017 -1.872,3.856015 -1.872,6.672 0,2.816009 0.624,5.056007 1.872,6.72 1.27999,1.632004 3.00799,2.448003 5.184,2.448 2.17599,3e-6 3.88799,-0.815996 5.136,-2.448 1.27998,-1.663993 1.91998,-3.903991 1.92,-6.72"
       id="path7897"
       style="font-size:48px;font-variant:normal;font-stretch:normal;letter-spacing:-1.70000005px;fill:#303030;font-family:Ubuntu;-inkscape-font-specification:Ubuntu" />
    <path
       d="m 164.28906,51.364027 c 1.024,-0.255976 2.384,-0.527975 4.08,-0.816 1.69599,-0.287975 3.64799,-0.431975 5.856,-0.432 1.98399,2.5e-5 3.63198,0.288025 4.944,0.864 1.31198,0.544024 2.35198,1.328023 3.12,2.352 0.79998,0.992021 1.35998,2.19202 1.68,3.6 0.31998,1.408017 0.47998,2.960016 0.48,4.656 l 0,14.016 -4.464,0 0,-13.056 c -2e-5,-1.535986 -0.11202,-2.847984 -0.336,-3.936 -0.19202,-1.087982 -0.52802,-1.967981 -1.008,-2.64 -0.48002,-0.67198 -1.12001,-1.151979 -1.92,-1.44 -0.80001,-0.319979 -1.79201,-0.479979 -2.976,-0.48 -0.48001,2.1e-5 -0.97601,0.01602 -1.488,0.048 -0.51201,0.03202 -1.00801,0.08002 -1.488,0.144 -0.44801,0.03202 -0.86401,0.08002 -1.248,0.144 -0.35201,0.06402 -0.60801,0.112021 -0.768,0.144 l 0,21.072 -4.464,0 0,-24.24"
       id="path7899"
       style="font-size:48px;font-variant:normal;font-stretch:normal;letter-spacing:-1.70000005px;fill:#303030;font-family:Ubuntu;-inkscape-font-specification:Ubuntu" />
    <path
       d="m 188.75956,63.172027 c 0,-2.207986 0.32,-4.127984 0.96,-5.76 0.64,-1.66398 1.488,-3.039979 2.544,-4.128 1.05599,-1.087977 2.27199,-1.903976 3.648,-2.448 1.37599,-0.543975 2.78399,-0.815975 4.224,-0.816 3.35998,2.5e-5 5.93598,1.056024 7.728,3.168 1.79198,2.08002 2.68798,5.264017 2.688,9.552 -2e-5,0.192012 -2e-5,0.448012 0,0.768 -2e-5,0.288012 -0.016,0.560011 -0.048,0.816 l -17.088,0 c 0.19199,2.592008 0.94399,4.560007 2.256,5.904 1.31199,1.344004 3.35999,2.016003 6.144,2.016 1.56798,3e-6 2.87998,-0.127997 3.936,-0.384 1.08798,-0.287996 1.90398,-0.559996 2.448,-0.816 l 0.624,3.744 c -0.54402,0.288 -1.50402,0.592 -2.88,0.912 -1.34402,0.319999 -2.88002,0.479999 -4.608,0.48 -2.17601,-10e-7 -4.06401,-0.32 -5.664,-0.96 -1.56801,-0.671999 -2.864,-1.583998 -3.888,-2.736 -1.024,-1.151996 -1.792,-2.511995 -2.304,-4.08 -0.48,-1.599991 -0.72,-3.34399 -0.72,-5.232 m 17.136,-2.448 c 0.032,-2.015983 -0.48002,-3.663982 -1.536,-4.944 -1.02402,-1.311979 -2.44801,-1.967978 -4.272,-1.968 -1.02401,2.2e-5 -1.93601,0.208021 -2.736,0.624 -0.76801,0.384021 -1.42401,0.89602 -1.968,1.536 -0.54401,0.640019 -0.97601,1.376018 -1.296,2.208 -0.28801,0.832016 -0.48001,1.680016 -0.576,2.544 l 12.384,0"
       id="path7901"
       style="font-size:48px;font-variant:normal;font-stretch:normal;letter-spacing:-1.70000005px;fill:#303030;font-family:Ubuntu;-inkscape-font-specification:Ubuntu" />
  </g>
</svg>
